<svg width="64" height="64" viewBox="0 0 64 64" fill="none" xmlns="http://www.w3.org/2000/svg">
<path d="M25.44 31.745C25.05 32.075 24.54 32.345 23.91 32.555C23.31 32.735 22.605 32.825 21.795 32.825C20.715 32.825 19.815 32.69 19.095 32.42C18.405 32.15 17.955 31.685 17.745 31.025C16.905 28.385 16.215 26.255 15.675 24.635C15.135 22.985 14.715 21.545 14.415 20.315H14.19C14.1 22.085 14.025 23.705 13.965 25.175C13.935 26.615 13.905 28.025 13.875 29.405C13.875 30.785 13.845 32.18 13.785 33.59C13.755 35 13.695 36.56 13.605 38.27C13.215 38.42 12.705 38.54 12.075 38.63C11.445 38.75 10.815 38.81 10.185 38.81C8.865 38.81 7.83 38.6 7.08 38.18C6.36 37.76 6 36.995 6 35.885L7.305 12.935C7.545 12.545 8.07 12.125 8.88 11.675C9.69 11.225 10.83 11 12.3 11C13.89 11 15.135 11.255 16.035 11.765C16.935 12.245 17.595 13.04 18.015 14.15C18.285 14.87 18.57 15.695 18.87 16.625C19.2 17.555 19.515 18.515 19.815 19.505C20.145 20.495 20.46 21.485 20.76 22.475C21.06 23.435 21.33 24.305 21.57 25.085H21.795C22.515 22.565 23.235 20.135 23.955 17.795C24.675 15.425 25.335 13.445 25.935 11.855C26.385 11.615 26.955 11.42 27.645 11.27C28.365 11.09 29.16 11 30.03 11C31.5 11 32.7 11.225 33.63 11.675C34.56 12.095 35.1 12.71 35.25 13.52C35.37 14.12 35.49 15.05 35.61 16.31C35.76 17.54 35.91 18.935 36.06 20.495C36.21 22.055 36.36 23.705 36.51 25.445C36.66 27.185 36.795 28.865 36.915 30.485C37.065 32.075 37.185 33.545 37.275 34.895C37.365 36.215 37.425 37.235 37.455 37.955C36.945 38.255 36.405 38.465 35.835 38.585C35.295 38.735 34.59 38.81 33.72 38.81C32.58 38.81 31.62 38.615 30.84 38.225C30.06 37.835 29.64 37.07 29.58 35.93C29.4 32.66 29.28 29.72 29.22 27.11C29.19 24.5 29.13 22.31 29.04 20.54H28.815C28.515 21.71 28.08 23.18 27.51 24.95C26.94 26.72 26.25 28.985 25.44 31.745Z" fill="#0A0A0A"/>
<g filter="url(#filter0_d_2_21)">
<path fill-rule="evenodd" clip-rule="evenodd" d="M30.4382 29.9061C29.4471 31.3516 31.814 38.256 36.8509 39.8368C43.1471 41.8128 56.4325 36.6403 54.1621 31.3516C53.0163 29.0907 51.7602 27.3047 48.9185 26.0629C44.6628 24.2031 36.676 27.109 34.9854 27.7483L34.9405 27.7653C34.0851 28.0886 32.2893 28.7674 30.4382 29.9061Z" fill="white"/>
<path d="M33.2948 51.4023C35.5684 52.0416 56.6721 46.0554 57.2551 45.5905C57.838 45.1256 58.0712 39.1394 55.9725 35.0712C55.2752 33.7194 54.7323 32.4767 54.1621 31.3516C56.4325 36.6403 43.1471 41.8128 36.8509 39.8368C36.2291 40.2049 34.6473 43.0333 33.2948 51.4023Z" fill="#F2DBC1"/>
<path d="M24.725 38.7907C24.9091 39.635 31.4759 50.8908 33.2948 51.4023C34.6473 43.0333 36.2291 40.2049 36.8509 39.8368C31.814 38.256 29.4471 31.3516 30.4382 29.9061C27.5942 31.6556 24.1421 36.1173 24.725 38.7907Z" fill="#F2DBC1"/>
<path d="M33.2948 51.4023C31.4759 50.8908 24.9091 39.635 24.725 38.7907C24.1421 36.1173 27.5942 31.6556 30.4382 29.9061M33.2948 51.4023C35.5684 52.0416 56.6721 46.0554 57.2551 45.5905C57.838 45.1256 58.0712 39.1394 55.9725 35.0712C55.2752 33.7194 54.7323 32.4767 54.1621 31.3516M33.2948 51.4023C34.6473 43.0333 36.2291 40.2049 36.8509 39.8368M34.9854 27.7483C36.676 27.109 44.6628 24.2031 48.9185 26.0629C51.7602 27.3047 53.0163 29.0907 54.1621 31.3516M34.9854 27.7483C34.9708 27.7538 34.9558 27.7595 34.9405 27.7653M34.9854 27.7483L34.9405 27.7653M30.4382 29.9061C29.4471 31.3516 31.814 38.256 36.8509 39.8368M30.4382 29.9061C32.2893 28.7674 34.0851 28.0886 34.9405 27.7653M36.8509 39.8368C43.1471 41.8128 56.4325 36.6403 54.1621 31.3516" stroke="#0A0A0A" stroke-width="2"/>
</g>
<path d="M39.1434 33.1481C38.97 33.2078 38.8209 33.2888 38.6959 33.3912C38.5778 33.4912 38.4943 33.6089 38.4454 33.7444C38.3991 33.8716 38.3909 34.0154 38.4207 34.1757C38.4505 34.3361 38.5322 34.5082 38.6658 34.6921C38.9331 35.0599 39.2549 35.294 39.6312 35.3944C40.0144 35.4923 40.3828 35.4804 40.7365 35.3587C40.9445 35.2871 41.1097 35.2042 41.232 35.1102C41.3544 35.0161 41.4573 34.9251 41.5407 34.837C41.7397 34.8723 41.9105 34.9285 42.0531 35.0054C42.1914 35.0765 42.3102 35.1802 42.4093 35.3167C42.586 35.5599 42.5887 35.7964 42.4175 36.0259C42.2419 36.2496 41.9149 36.4437 41.4364 36.6085C40.9996 36.7589 40.5656 36.8416 40.1344 36.8566C39.6989 36.8656 39.2817 36.8164 38.8829 36.7089C38.4867 36.5932 38.118 36.4198 37.7767 36.1887C37.4355 35.9576 37.142 35.6729 36.8963 35.3348C36.6118 34.9432 36.4368 34.577 36.3712 34.2362C36.3082 33.887 36.336 33.5733 36.4546 33.2951C36.5732 33.0169 36.7645 32.7731 37.0283 32.5636C37.2991 32.3517 37.6217 32.1812 37.9962 32.0523C38.4954 31.8804 38.9363 31.825 39.3187 31.8862C39.7012 31.9473 39.9808 32.0995 40.1576 32.3427C40.2395 32.4555 40.2859 32.573 40.2967 32.6953C40.3033 32.8118 40.2908 32.9199 40.2594 33.0197C40.107 33.0129 39.9325 33.0173 39.7359 33.0331C39.535 33.0429 39.3375 33.0813 39.1434 33.1481Z" fill="#0A0A0A"/>
<path d="M44.4435 33.5482C44.5555 33.7025 44.6907 33.7931 44.8491 33.8202C45.0144 33.8449 45.201 33.8214 45.4091 33.7498C45.5131 33.714 45.6162 33.671 45.7185 33.621C45.8166 33.565 45.8985 33.5108 45.9645 33.4584C46.0743 33.5022 46.1802 33.5584 46.2822 33.6272C46.3867 33.6876 46.48 33.7741 46.5619 33.8869C46.7257 34.1123 46.7587 34.3308 46.6611 34.5425C46.5704 34.7517 46.2754 34.9423 45.7762 35.1142C45.166 35.3243 44.6083 35.368 44.1031 35.2453C43.6048 35.1202 43.1617 34.7906 42.7737 34.2567L40.0064 30.4478C40.0698 30.4038 40.1643 30.349 40.2901 30.2834C40.4184 30.2095 40.5624 30.1452 40.7218 30.0902C41.0269 29.9852 41.2971 29.9515 41.5325 29.9891C41.7705 30.0184 41.9973 30.1814 42.2128 30.478L42.6266 31.0476L43.9891 30.5784C44.0781 30.6294 44.1766 30.6993 44.2845 30.7882C44.3951 30.8688 44.4935 30.9684 44.5797 31.0871C44.7306 31.2947 44.785 31.4651 44.7431 31.5982C44.7037 31.7231 44.5939 31.8165 44.4136 31.8786L43.4671 32.2045L44.4435 33.5482Z" fill="#0A0A0A"/>
<path d="M49.7123 33.5809C49.6446 33.619 49.541 33.6732 49.4014 33.7435C49.273 33.8174 49.1326 33.8806 48.98 33.9331C48.8275 33.9857 48.6824 34.0245 48.5446 34.0497C48.4138 34.0725 48.2874 34.0715 48.1654 34.0467C48.0434 34.022 47.9258 33.9735 47.8126 33.9012C47.702 33.8206 47.5929 33.7062 47.4851 33.5578L43.735 28.3963C43.8027 28.3582 43.9029 28.3051 44.0355 28.2372C44.1708 28.161 44.3148 28.0966 44.4673 28.044C44.6199 27.9915 44.7615 27.9539 44.8923 27.9311C45.0301 27.9059 45.1599 27.9057 45.2819 27.9304C45.4039 27.9552 45.5202 28.0078 45.6308 28.0884C45.744 28.1607 45.8545 28.271 45.9622 28.4193L49.7123 33.5809Z" fill="#0A0A0A"/>
<defs>
<filter id="filter0_d_2_21" x="23.6599" y="24.45" width="35.0001" height="32.0001" filterUnits="userSpaceOnUse" color-interpolation-filters="sRGB">
<feFlood flood-opacity="0" result="BackgroundImageFix"/>
<feColorMatrix in="SourceAlpha" type="matrix" values="0 0 0 0 0 0 0 0 0 0 0 0 0 0 0 0 0 0 127 0" result="hardAlpha"/>
<feOffset dy="4"/>
<feComposite in2="hardAlpha" operator="out"/>
<feColorMatrix type="matrix" values="0 0 0 0 0.0769231 0 0 0 0 0.0410256 0 0 0 0 0 0 0 0 0.33 0"/>
<feBlend mode="normal" in2="BackgroundImageFix" result="effect1_dropShadow_2_21"/>
<feBlend mode="normal" in="SourceGraphic" in2="effect1_dropShadow_2_21" result="shape"/>
</filter>
</defs>
</svg>
