<svg width="50" height="50" viewBox="0 0 50 50" fill="none" xmlns="http://www.w3.org/2000/svg">
<g filter="url(#filter0_d_9_3)">
<path fill-rule="evenodd" clip-rule="evenodd" d="M13.7782 16.4561C12.7871 17.9016 15.154 24.806 20.1909 26.3868C26.4871 28.3628 39.7725 23.1903 37.5021 17.9016C36.3563 15.6407 35.1002 13.8547 32.2585 12.6129C28.0028 10.7531 20.016 13.659 18.3254 14.2983L18.2805 14.3152C17.4251 14.6386 15.6293 15.3174 13.7782 16.4561Z" fill="white"/>
<path d="M16.6348 37.9523C18.9084 38.5916 40.0121 32.6054 40.5951 32.1405C41.178 31.6755 41.4112 25.6894 39.3125 21.6211C38.6152 20.2694 38.0723 19.0267 37.5021 17.9016C39.7725 23.1903 26.4871 28.3628 20.1909 26.3868C19.5691 26.7549 17.9873 29.5833 16.6348 37.9523Z" fill="#F2DBC1"/>
<path d="M8.06504 25.3407C8.24914 26.185 14.8159 37.4408 16.6348 37.9523C17.9873 29.5833 19.5691 26.7549 20.1909 26.3868C15.154 24.806 12.7871 17.9016 13.7782 16.4561C10.9342 18.2056 7.48207 22.6673 8.06504 25.3407Z" fill="#F2DBC1"/>
<path d="M16.6348 37.9523C14.8159 37.4408 8.24914 26.185 8.06504 25.3407C7.48207 22.6673 10.9342 18.2056 13.7782 16.4561M16.6348 37.9523C18.9084 38.5916 40.0121 32.6054 40.5951 32.1405C41.178 31.6755 41.4112 25.6894 39.3125 21.6211C38.6152 20.2694 38.0723 19.0267 37.5021 17.9016M16.6348 37.9523C17.9873 29.5833 19.5691 26.7549 20.1909 26.3868M18.3254 14.2983C20.016 13.659 28.0028 10.7531 32.2585 12.6129C35.1002 13.8547 36.3563 15.6407 37.5021 17.9016M18.3254 14.2983C18.3107 14.3038 18.2958 14.3095 18.2805 14.3152M18.3254 14.2983L18.2805 14.3152M13.7782 16.4561C12.7871 17.9016 15.154 24.806 20.1909 26.3868M13.7782 16.4561C15.6293 15.3174 17.4251 14.6386 18.2805 14.3152M20.1909 26.3868C26.4871 28.3628 39.7725 23.1903 37.5021 17.9016" stroke="#0A0A0A" stroke-width="2"/>
</g>
<path d="M22.4834 19.6981C22.31 19.7578 22.1609 19.8388 22.0359 19.9412C21.9178 20.0412 21.8343 20.1589 21.7854 20.2944C21.7391 20.4216 21.7309 20.5654 21.7607 20.7257C21.7905 20.886 21.8722 21.0582 22.0058 21.2421C22.2731 21.6099 22.5948 21.844 22.9712 21.9444C23.3544 22.0423 23.7228 22.0304 24.0764 21.9087C24.2845 21.837 24.4497 21.7542 24.572 21.6602C24.6944 21.5661 24.7973 21.475 24.8807 21.387C25.0797 21.4223 25.2505 21.4785 25.3931 21.5554C25.5314 21.6265 25.6502 21.7302 25.7493 21.8667C25.926 22.1099 25.9287 22.3463 25.7575 22.5759C25.5819 22.7995 25.2549 22.9937 24.7764 23.1585C24.3396 23.3089 23.9056 23.3916 23.4744 23.4065C23.0389 23.4156 22.6217 23.3664 22.2229 23.2589C21.8267 23.1432 21.458 22.9697 21.1167 22.7386C20.7755 22.5076 20.482 22.2229 20.2363 21.8848C19.9518 21.4932 19.7768 21.127 19.7112 20.7861C19.6482 20.437 19.676 20.1233 19.7946 19.8451C19.9132 19.5669 20.1045 19.3231 20.3683 19.1136C20.6391 18.9016 20.9617 18.7312 21.3362 18.6023C21.8354 18.4304 22.2763 18.375 22.6587 18.4362C23.0412 18.4973 23.3208 18.6495 23.4976 18.8927C23.5795 19.0055 23.6259 19.123 23.6367 19.2453C23.6433 19.3617 23.6308 19.4699 23.5993 19.5697C23.447 19.5628 23.2725 19.5673 23.0759 19.5831C22.875 19.5929 22.6775 19.6312 22.4834 19.6981Z" fill="#0A0A0A"/>
<path d="M27.7835 20.0982C27.8955 20.2525 28.0307 20.3431 28.1891 20.3702C28.3544 20.3949 28.541 20.3714 28.749 20.2998C28.8531 20.264 28.9562 20.221 29.0585 20.171C29.1565 20.115 29.2385 20.0608 29.3045 20.0084C29.4143 20.0522 29.5202 20.1084 29.6221 20.1771C29.7267 20.2376 29.82 20.3241 29.9019 20.4368C30.0657 20.6623 30.0987 20.8808 30.0011 21.0925C29.9104 21.3017 29.6154 21.4923 29.1162 21.6642C28.506 21.8743 27.9483 21.918 27.4431 21.7952C26.9448 21.6701 26.5017 21.3406 26.1137 20.8067L23.3464 16.9978C23.4098 16.9538 23.5043 16.8989 23.6301 16.8334C23.7584 16.7595 23.9023 16.6951 24.0618 16.6402C24.3669 16.5352 24.6371 16.5015 24.8725 16.5391C25.1105 16.5684 25.3373 16.7314 25.5528 17.028L25.9666 17.5976L27.3291 17.1284C27.4181 17.1793 27.5166 17.2493 27.6245 17.3382C27.7351 17.4188 27.8335 17.5184 27.9197 17.6371C28.0706 17.8447 28.125 18.0151 28.083 18.1482C28.0437 18.273 27.9339 18.3665 27.7536 18.4286L26.8071 18.7544L27.7835 20.0982Z" fill="#0A0A0A"/>
<path d="M33.0523 20.1308C32.9846 20.169 32.881 20.2232 32.7414 20.2935C32.613 20.3674 32.4726 20.4306 32.32 20.4831C32.1675 20.5356 32.0223 20.5745 31.8846 20.5997C31.7538 20.6225 31.6274 20.6215 31.5054 20.5967C31.3834 20.572 31.2658 20.5235 31.1526 20.4512C31.042 20.3706 30.9329 20.2561 30.8251 20.1078L27.075 14.9463C27.1427 14.9082 27.2429 14.8551 27.3755 14.7872C27.5108 14.7109 27.6548 14.6465 27.8073 14.594C27.9599 14.5415 28.1015 14.5038 28.2323 14.4811C28.3701 14.4559 28.4999 14.4557 28.6219 14.4804C28.7439 14.5051 28.8602 14.5578 28.9708 14.6384C29.084 14.7107 29.1945 14.821 29.3022 14.9693L33.0523 20.1308Z" fill="#0A0A0A"/>
<defs>
<filter id="filter0_d_9_3" x="6.99994" y="11" width="35.0001" height="32.0001" filterUnits="userSpaceOnUse" color-interpolation-filters="sRGB">
<feFlood flood-opacity="0" result="BackgroundImageFix"/>
<feColorMatrix in="SourceAlpha" type="matrix" values="0 0 0 0 0 0 0 0 0 0 0 0 0 0 0 0 0 0 127 0" result="hardAlpha"/>
<feOffset dy="4"/>
<feComposite in2="hardAlpha" operator="out"/>
<feColorMatrix type="matrix" values="0 0 0 0 0.0769231 0 0 0 0 0.0410256 0 0 0 0 0 0 0 0 0.33 0"/>
<feBlend mode="normal" in2="BackgroundImageFix" result="effect1_dropShadow_9_3"/>
<feBlend mode="normal" in="SourceGraphic" in2="effect1_dropShadow_9_3" result="shape"/>
</filter>
</defs>
</svg>
